# xmcd CD database file
#
# Track frame offsets:
#	202
#	16637
#	32327
#	44617
#	58082
#	71635
#	83247
#	96095
#	108152
#	120702
#	133115
#	151635
#	164030
#	179100
#	191870
#	204872
#
# Disc length: 2964 seconds
#
# Revision: 0
# Processed by: cddbd v1.4PL0 Copyright (c) Steve Scherf et al.
# Submitted via: CDex 1.50beta9
#
DISCID=d80b9210
DTITLE=PADDY O'BRIEN - PADDY O'BRIEN-GOLDEN MOMENTS
DYEAR=1900
DGENRE=Country
TTITLE0=Never Grow Old
TTITLE1=For The Memories
TTITLE2=The Yodelling Waltz
TTITLE3=Lovin'her Was Easier Than Anything I'll Ever Do
TTITLE4=Baby Don't You Know
TTITLE5=Till This Ring Turns Green
TTITLE6=The Heart
TTITLE7=Love Me Then
TTITLE8=Dixie Road
TTITLE9=Rolling Stone
TTITLE10=Can't Hold The Years Back
TTITLE11=September In Miami
TTITLE12=I'm Thinking Tonight Of My Blue Eyes
TTITLE13=Nobody Loves You Like I Do
TTITLE14=Carlingford Bay
TTITLE15=Infamous Angel
EXTD=
EXTT0=
EXTT1=
EXTT2=
EXTT3=
EXTT4=
EXTT5=
EXTT6=
EXTT7=
EXTT8=
EXTT9=
EXTT10=
EXTT11=
EXTT12=
EXTT13=
EXTT14=
EXTT15=
PLAYORDER=
